<svg width="439" height="142" viewBox="0 0 439 142" fill="none" xmlns="http://www.w3.org/2000/svg">
<mask id="path-1-outside-1_1_54" maskUnits="userSpaceOnUse" x="-0.19751" y="0.919998" width="439" height="141" fill="black">
<rect fill="white" x="-0.19751" y="0.919998" width="439" height="141"/>
<path fill-rule="evenodd" clip-rule="evenodd" d="M25.0105 9.92L10.8025 104H24.2425L26.8025 84.8H40.1145L42.6745 104H56.1145L41.9065 9.92H25.0105ZM38.1945 70.208H28.7225L32.6905 38.592L33.0745 33.6H33.8425L34.2265 38.592L38.1945 70.208ZM61.5125 33.984V104H74.4405V55.36C74.4405 52.7147 75.2938 50.624 77.0005 49.088C78.7072 47.552 80.9685 46.784 83.7845 46.784C84.3818 46.784 84.9792 46.8267 85.5765 46.912C86.2165 46.9547 86.8138 47.0827 87.3685 47.296V32.96C85.4485 32.96 83.5285 33.344 81.6085 34.112C79.7312 34.88 78.1312 35.9253 76.8085 37.248C75.4858 38.5707 74.6965 40.0853 74.4405 41.792V33.984H61.5125ZM95.2155 99.648C97.9035 103.189 102.085 104.96 107.759 104.96C113.434 104.96 117.616 103.189 120.303 99.648C123.034 96.1067 124.4 91.1787 124.4 84.864V79.36H111.471V86.528C111.471 88.4907 111.215 90.1333 110.703 91.456C110.191 92.7787 109.21 93.44 107.759 93.44C106.309 93.44 105.349 92.7787 104.88 91.456C104.41 90.0907 104.175 88.448 104.175 86.528V51.392C104.175 49.472 104.41 47.8507 104.88 46.528C105.349 45.1627 106.309 44.48 107.759 44.48C109.21 44.48 110.191 45.1413 110.703 46.464C111.215 47.7867 111.471 49.4293 111.471 51.392V58.56H124.4V53.056C124.4 46.7413 123.034 41.8133 120.303 38.272C117.616 34.7307 113.434 32.96 107.759 32.96C102.085 32.96 97.9035 34.7307 95.2155 38.272C92.5702 41.7707 91.2475 46.6987 91.2475 53.056V84.864C91.2475 91.1787 92.5702 96.1067 95.2155 99.648ZM141.273 24.128V104H155.098V24.128H168.154V9.92H128.217V24.128H141.273ZM169.262 33.984V104H182.191V55.36C182.191 52.7147 183.044 50.624 184.751 49.088C186.457 47.552 188.719 46.784 191.535 46.784C192.132 46.784 192.729 46.8267 193.327 46.912C193.967 46.9547 194.564 47.0827 195.118 47.296V32.96C193.199 32.96 191.279 33.344 189.359 34.112C187.481 34.88 185.881 35.9253 184.559 37.248C183.236 38.5707 182.447 40.0853 182.191 41.792V33.984H169.262ZM200.941 100.48C203.118 103.509 205.699 105.024 208.686 105.024C210.819 105.024 212.696 104.405 214.318 103.168C215.982 101.931 217.347 100.331 218.413 98.368H219.31C219.31 98.7947 219.352 99.6693 219.438 100.992C219.566 102.315 219.907 103.317 220.462 104H233.133C232.878 102.464 232.664 100.843 232.493 99.136C232.323 97.3867 232.238 94.9547 232.238 91.84V50.112C232.238 46.784 231.576 43.84 230.254 41.28C228.973 38.6773 227.16 36.6507 224.814 35.2C222.467 33.7067 219.693 32.96 216.493 32.96C213.165 32.96 210.179 33.728 207.534 35.264C204.931 36.7573 202.861 38.912 201.326 41.728C199.832 44.5013 199.085 47.808 199.085 51.648V54.592H212.014V51.264C212.014 49.2587 212.27 47.5947 212.781 46.272C213.294 44.9067 214.275 44.224 215.725 44.224C217.304 44.224 218.286 44.864 218.669 46.144C219.096 47.3813 219.31 48.8747 219.31 50.624V58.304C219.053 58.9013 218.371 59.5413 217.262 60.224C216.152 60.9067 214.787 61.6747 213.165 62.528C208.003 65.216 204.12 68.3947 201.518 72.064C198.958 75.7333 197.678 80.576 197.678 86.592C197.678 92.8213 198.766 97.4507 200.941 100.48ZM217.71 90.816C216.686 91.84 215.427 92.352 213.934 92.352C212.654 92.352 211.736 91.6267 211.182 90.176C210.627 88.7253 210.35 87.2747 210.35 85.824C210.35 82.496 211.053 79.5093 212.462 76.864C213.912 74.176 216.195 72.1707 219.31 70.848V87.488C219.31 88.6827 218.776 89.792 217.71 90.816ZM242.84 99.648C245.529 103.189 249.71 104.96 255.385 104.96C261.059 104.96 265.241 103.189 267.928 99.648C270.659 96.1067 272.025 91.1787 272.025 84.864V79.36H259.096V86.528C259.096 88.4907 258.84 90.1333 258.329 91.456C257.816 92.7787 256.835 93.44 255.385 93.44C253.934 93.44 252.974 92.7787 252.505 91.456C252.035 90.0907 251.801 88.448 251.801 86.528V51.392C251.801 49.472 252.035 47.8507 252.505 46.528C252.974 45.1627 253.934 44.48 255.385 44.48C256.835 44.48 257.816 45.1413 258.329 46.464C258.84 47.7867 259.096 49.4293 259.096 51.392V58.56H272.025V53.056C272.025 46.7413 270.659 41.8133 267.928 38.272C265.241 34.7307 261.059 32.96 255.385 32.96C249.71 32.96 245.529 34.7307 242.84 38.272C240.195 41.7707 238.872 46.6987 238.872 53.056V84.864C238.872 91.1787 240.195 96.1067 242.84 99.648ZM277.763 9.92V104H290.69V79.808L292.738 74.688H292.867L292.995 75.712L299.395 104H312.451L300.674 56.768L310.659 33.984H298.371L292.099 52.288L291.331 54.592H290.69V52.288V9.92H277.763ZM319.789 99.712C322.775 103.253 326.85 105.024 332.013 105.024C337.346 105.024 341.463 103.381 344.365 100.096C347.309 96.768 348.781 92.3947 348.781 86.976V78.912H336.749V86.592C336.749 88.5547 336.386 90.2187 335.66 91.584C334.978 92.9493 333.805 93.632 332.141 93.632C330.562 93.632 329.367 92.9067 328.556 91.456C327.789 89.9627 327.405 88.3413 327.405 86.592V71.36H348.781V51.008C348.781 47.552 348.119 44.48 346.797 41.792C345.474 39.0613 343.554 36.9067 341.036 35.328C338.562 33.7493 335.596 32.96 332.141 32.96C326.85 32.96 322.733 34.6667 319.789 38.08C316.845 41.4933 315.372 45.9307 315.372 51.392V86.592C315.372 91.7547 316.845 96.128 319.789 99.712ZM336.749 61.248H327.405V51.392C327.405 49.5573 327.789 47.9147 328.556 46.464C329.324 44.9707 330.519 44.224 332.141 44.224C333.89 44.224 335.085 44.9493 335.724 46.4C336.407 47.808 336.749 49.472 336.749 51.392V61.248ZM354.263 33.984V104H367.19V55.36C367.19 52.7147 368.044 50.624 369.75 49.088C371.457 47.552 373.719 46.784 376.535 46.784C377.132 46.784 377.729 46.8267 378.327 46.912C378.966 46.9547 379.564 47.0827 380.118 47.296V32.96C378.198 32.96 376.279 33.344 374.358 34.112C372.481 34.88 370.881 35.9253 369.559 37.248C368.236 38.5707 367.447 40.0853 367.19 41.792V33.984H354.263ZM376.263 79.8575C375.024 86.8964 376.386 93.7868 379.633 99.4417L352.407 122.599L357.497 128.584L384.469 105.643C388.059 109.089 392.594 111.54 397.749 112.499C412.312 115.209 426.304 104.989 429 89.6718C431.696 74.3545 422.076 59.7404 407.513 57.0302C392.951 54.3201 378.959 64.5402 376.263 79.8575ZM381.692 80.8678C379.551 93.0315 387.19 104.637 398.754 106.789C410.319 108.941 421.43 100.825 423.571 88.6615C425.712 76.4978 418.073 64.8924 406.508 62.7403C394.944 60.5881 383.833 68.704 381.692 80.8678Z"/>
</mask>
<path fill-rule="evenodd" clip-rule="evenodd" d="M25.0105 9.92L10.8025 104H24.2425L26.8025 84.8H40.1145L42.6745 104H56.1145L41.9065 9.92H25.0105ZM38.1945 70.208H28.7225L32.6905 38.592L33.0745 33.6H33.8425L34.2265 38.592L38.1945 70.208ZM61.5125 33.984V104H74.4405V55.36C74.4405 52.7147 75.2938 50.624 77.0005 49.088C78.7072 47.552 80.9685 46.784 83.7845 46.784C84.3818 46.784 84.9792 46.8267 85.5765 46.912C86.2165 46.9547 86.8138 47.0827 87.3685 47.296V32.96C85.4485 32.96 83.5285 33.344 81.6085 34.112C79.7312 34.88 78.1312 35.9253 76.8085 37.248C75.4858 38.5707 74.6965 40.0853 74.4405 41.792V33.984H61.5125ZM95.2155 99.648C97.9035 103.189 102.085 104.96 107.759 104.96C113.434 104.96 117.616 103.189 120.303 99.648C123.034 96.1067 124.4 91.1787 124.4 84.864V79.36H111.471V86.528C111.471 88.4907 111.215 90.1333 110.703 91.456C110.191 92.7787 109.21 93.44 107.759 93.44C106.309 93.44 105.349 92.7787 104.88 91.456C104.41 90.0907 104.175 88.448 104.175 86.528V51.392C104.175 49.472 104.41 47.8507 104.88 46.528C105.349 45.1627 106.309 44.48 107.759 44.48C109.21 44.48 110.191 45.1413 110.703 46.464C111.215 47.7867 111.471 49.4293 111.471 51.392V58.56H124.4V53.056C124.4 46.7413 123.034 41.8133 120.303 38.272C117.616 34.7307 113.434 32.96 107.759 32.96C102.085 32.96 97.9035 34.7307 95.2155 38.272C92.5702 41.7707 91.2475 46.6987 91.2475 53.056V84.864C91.2475 91.1787 92.5702 96.1067 95.2155 99.648ZM141.273 24.128V104H155.098V24.128H168.154V9.92H128.217V24.128H141.273ZM169.262 33.984V104H182.191V55.36C182.191 52.7147 183.044 50.624 184.751 49.088C186.457 47.552 188.719 46.784 191.535 46.784C192.132 46.784 192.729 46.8267 193.327 46.912C193.967 46.9547 194.564 47.0827 195.118 47.296V32.96C193.199 32.96 191.279 33.344 189.359 34.112C187.481 34.88 185.881 35.9253 184.559 37.248C183.236 38.5707 182.447 40.0853 182.191 41.792V33.984H169.262ZM200.941 100.48C203.118 103.509 205.699 105.024 208.686 105.024C210.819 105.024 212.696 104.405 214.318 103.168C215.982 101.931 217.347 100.331 218.413 98.368H219.31C219.31 98.7947 219.352 99.6693 219.438 100.992C219.566 102.315 219.907 103.317 220.462 104H233.133C232.878 102.464 232.664 100.843 232.493 99.136C232.323 97.3867 232.238 94.9547 232.238 91.84V50.112C232.238 46.784 231.576 43.84 230.254 41.28C228.973 38.6773 227.16 36.6507 224.814 35.2C222.467 33.7067 219.693 32.96 216.493 32.96C213.165 32.96 210.179 33.728 207.534 35.264C204.931 36.7573 202.861 38.912 201.326 41.728C199.832 44.5013 199.085 47.808 199.085 51.648V54.592H212.014V51.264C212.014 49.2587 212.27 47.5947 212.781 46.272C213.294 44.9067 214.275 44.224 215.725 44.224C217.304 44.224 218.286 44.864 218.669 46.144C219.096 47.3813 219.31 48.8747 219.31 50.624V58.304C219.053 58.9013 218.371 59.5413 217.262 60.224C216.152 60.9067 214.787 61.6747 213.165 62.528C208.003 65.216 204.12 68.3947 201.518 72.064C198.958 75.7333 197.678 80.576 197.678 86.592C197.678 92.8213 198.766 97.4507 200.941 100.48ZM217.71 90.816C216.686 91.84 215.427 92.352 213.934 92.352C212.654 92.352 211.736 91.6267 211.182 90.176C210.627 88.7253 210.35 87.2747 210.35 85.824C210.35 82.496 211.053 79.5093 212.462 76.864C213.912 74.176 216.195 72.1707 219.31 70.848V87.488C219.31 88.6827 218.776 89.792 217.71 90.816ZM242.84 99.648C245.529 103.189 249.71 104.96 255.385 104.96C261.059 104.96 265.241 103.189 267.928 99.648C270.659 96.1067 272.025 91.1787 272.025 84.864V79.36H259.096V86.528C259.096 88.4907 258.84 90.1333 258.329 91.456C257.816 92.7787 256.835 93.44 255.385 93.44C253.934 93.44 252.974 92.7787 252.505 91.456C252.035 90.0907 251.801 88.448 251.801 86.528V51.392C251.801 49.472 252.035 47.8507 252.505 46.528C252.974 45.1627 253.934 44.48 255.385 44.48C256.835 44.48 257.816 45.1413 258.329 46.464C258.84 47.7867 259.096 49.4293 259.096 51.392V58.56H272.025V53.056C272.025 46.7413 270.659 41.8133 267.928 38.272C265.241 34.7307 261.059 32.96 255.385 32.96C249.71 32.96 245.529 34.7307 242.84 38.272C240.195 41.7707 238.872 46.6987 238.872 53.056V84.864C238.872 91.1787 240.195 96.1067 242.84 99.648ZM277.763 9.92V104H290.69V79.808L292.738 74.688H292.867L292.995 75.712L299.395 104H312.451L300.674 56.768L310.659 33.984H298.371L292.099 52.288L291.331 54.592H290.69V52.288V9.92H277.763ZM319.789 99.712C322.775 103.253 326.85 105.024 332.013 105.024C337.346 105.024 341.463 103.381 344.365 100.096C347.309 96.768 348.781 92.3947 348.781 86.976V78.912H336.749V86.592C336.749 88.5547 336.386 90.2187 335.66 91.584C334.978 92.9493 333.805 93.632 332.141 93.632C330.562 93.632 329.367 92.9067 328.556 91.456C327.789 89.9627 327.405 88.3413 327.405 86.592V71.36H348.781V51.008C348.781 47.552 348.119 44.48 346.797 41.792C345.474 39.0613 343.554 36.9067 341.036 35.328C338.562 33.7493 335.596 32.96 332.141 32.96C326.85 32.96 322.733 34.6667 319.789 38.08C316.845 41.4933 315.372 45.9307 315.372 51.392V86.592C315.372 91.7547 316.845 96.128 319.789 99.712ZM336.749 61.248H327.405V51.392C327.405 49.5573 327.789 47.9147 328.556 46.464C329.324 44.9707 330.519 44.224 332.141 44.224C333.89 44.224 335.085 44.9493 335.724 46.4C336.407 47.808 336.749 49.472 336.749 51.392V61.248ZM354.263 33.984V104H367.19V55.36C367.19 52.7147 368.044 50.624 369.75 49.088C371.457 47.552 373.719 46.784 376.535 46.784C377.132 46.784 377.729 46.8267 378.327 46.912C378.966 46.9547 379.564 47.0827 380.118 47.296V32.96C378.198 32.96 376.279 33.344 374.358 34.112C372.481 34.88 370.881 35.9253 369.559 37.248C368.236 38.5707 367.447 40.0853 367.19 41.792V33.984H354.263ZM376.263 79.8575C375.024 86.8964 376.386 93.7868 379.633 99.4417L352.407 122.599L357.497 128.584L384.469 105.643C388.059 109.089 392.594 111.54 397.749 112.499C412.312 115.209 426.304 104.989 429 89.6718C431.696 74.3545 422.076 59.7404 407.513 57.0302C392.951 54.3201 378.959 64.5402 376.263 79.8575ZM381.692 80.8678C379.551 93.0315 387.19 104.637 398.754 106.789C410.319 108.941 421.43 100.825 423.571 88.6615C425.712 76.4978 418.073 64.8924 406.508 62.7403C394.944 60.5881 383.833 68.704 381.692 80.8678Z" fill="white"/>
<path d="M10.8025 104L1.90341 102.656L0.341263 113H10.8025V104ZM25.0105 9.92V0.919998H17.2676L16.1114 8.57605L25.0105 9.92ZM24.2425 104V113H32.1221L33.1636 105.189L24.2425 104ZM26.8025 84.8V75.8H18.9229L17.8815 83.6105L26.8025 84.8ZM40.1145 84.8L49.0356 83.6105L47.9941 75.8H40.1145V84.8ZM42.6745 104L33.7535 105.189L34.7949 113H42.6745V104ZM56.1145 104V113H66.5757L65.0136 102.656L56.1145 104ZM41.9065 9.92L50.8056 8.57605L49.6494 0.919998H41.9065V9.92ZM28.7225 70.208L19.7926 69.0872L18.5223 79.208H28.7225V70.208ZM38.1945 70.208V79.208H48.3947L47.1244 69.0872L38.1945 70.208ZM32.6905 38.592L41.6204 39.7128L41.6474 39.498L41.664 39.2823L32.6905 38.592ZM33.0745 33.6V24.6H24.7402L24.101 32.9097L33.0745 33.6ZM33.8425 33.6L42.816 32.9097L42.1768 24.6H33.8425V33.6ZM34.2265 38.592L25.253 39.2823L25.2696 39.498L25.2966 39.7128L34.2265 38.592ZM61.5125 104H52.5125V113H61.5125V104ZM61.5125 33.984V24.984H52.5125V33.984H61.5125ZM74.4405 104V113H83.4405V104H74.4405ZM77.0005 49.088L83.0212 55.7777L83.0212 55.7776L77.0005 49.088ZM85.5765 46.912L84.3037 55.8215L84.6394 55.8695L84.9778 55.8921L85.5765 46.912ZM87.3685 47.296L84.1377 55.6961L96.3685 60.4003V47.296H87.3685ZM87.3685 32.96H96.3685V23.96H87.3685V32.96ZM81.6085 34.112L78.266 25.7557L78.2333 25.7688L78.2008 25.7821L81.6085 34.112ZM76.8085 37.248L83.1725 43.612L83.1725 43.612L76.8085 37.248ZM74.4405 41.792H65.4405L83.3409 43.1271L74.4405 41.792ZM74.4405 33.984H83.4405V24.984H74.4405V33.984ZM95.2155 99.648L88.0051 105.034L88.0258 105.062L88.0467 105.089L95.2155 99.648ZM120.303 99.648L113.176 94.1523L113.155 94.1794L113.135 94.2066L120.303 99.648ZM124.4 79.36H133.4V70.36H124.4V79.36ZM111.471 79.36V70.36H102.471V79.36H111.471ZM110.703 91.456L119.097 94.705L119.097 94.7049L110.703 91.456ZM104.88 91.456L96.3683 94.3817L96.3828 94.4238L96.3976 94.4657L104.88 91.456ZM104.88 46.528L113.361 49.5377L113.376 49.4958L113.391 49.4537L104.88 46.528ZM111.471 58.56H102.471V67.56H111.471V58.56ZM124.4 58.56V67.56H133.4V58.56H124.4ZM120.303 38.272L113.135 43.7134L113.155 43.7406L113.176 43.7677L120.303 38.272ZM95.2155 38.272L88.0467 32.8306L88.0416 32.8373L88.0366 32.844L95.2155 38.272ZM141.273 104H132.273V113H141.273V104ZM141.273 24.128H150.273V15.128H141.273V24.128ZM155.098 104V113H164.098V104H155.098ZM155.098 24.128V15.128H146.098V24.128H155.098ZM168.154 24.128V33.128H177.154V24.128H168.154ZM168.154 9.92H177.154V0.919998H168.154V9.92ZM128.217 9.92V0.919998H119.217V9.92H128.217ZM128.217 24.128H119.217V33.128H128.217V24.128ZM169.262 104H160.262V113H169.262V104ZM169.262 33.984V24.984H160.262V33.984H169.262ZM182.191 104V113H191.191V104H182.191ZM193.327 46.912L192.054 55.8215L192.389 55.8695L192.728 55.8921L193.327 46.912ZM195.118 47.296L191.888 55.6961L204.118 60.4002V47.296H195.118ZM195.118 32.96H204.118V23.96H195.118V32.96ZM189.359 34.112L186.016 25.7557L185.983 25.7688L185.951 25.7821L189.359 34.112ZM184.559 37.248L178.195 30.884L178.195 30.884L184.559 37.248ZM182.191 41.792H173.191L191.091 43.127L182.191 41.792ZM182.191 33.984H191.191V24.984H182.191V33.984ZM200.941 100.48L193.632 105.731L193.632 105.731L200.941 100.48ZM214.318 103.168L208.947 95.9458L208.902 95.9794L208.857 96.0134L214.318 103.168ZM218.413 98.368V89.368H213.062L210.506 94.0704L218.413 98.368ZM219.31 98.368H228.31V89.368H219.31V98.368ZM219.438 100.992L210.456 101.571L210.465 101.715L210.479 101.859L219.438 100.992ZM220.462 104L213.477 109.675L216.178 113H220.462V104ZM233.133 104V113H243.758L242.011 102.52L233.133 104ZM232.493 99.136L223.536 100.01L223.537 100.021L223.538 100.032L232.493 99.136ZM230.254 41.28L222.177 45.2519L222.217 45.3319L222.258 45.4112L230.254 41.28ZM224.814 35.2L219.982 42.793L220.031 42.8245L220.081 42.8553L224.814 35.2ZM207.534 35.264L212.013 43.0703L212.033 43.0588L212.053 43.0471L207.534 35.264ZM201.326 41.728L193.424 37.4183L193.413 37.4397L193.401 37.4611L201.326 41.728ZM199.085 54.592H190.085V63.592H199.085V54.592ZM212.014 54.592V63.592H221.014V54.592H212.014ZM212.781 46.272L221.175 49.5209L221.192 49.4766L221.208 49.4322L212.781 46.272ZM218.669 46.144L210.049 48.7301L210.102 48.9051L210.161 49.0779L218.669 46.144ZM219.31 58.304L227.582 61.8494L228.31 60.1514V58.304H219.31ZM217.262 60.224L221.978 67.8889L221.978 67.8889L217.262 60.224ZM213.165 62.528L217.322 70.5108L217.34 70.5016L217.357 70.4923L213.165 62.528ZM201.518 72.064L194.177 66.8571L194.156 66.8857L194.136 66.9144L201.518 72.064ZM217.71 90.816L211.477 84.3235L211.41 84.3871L211.346 84.452L217.71 90.816ZM211.182 90.176L219.588 86.9618L219.588 86.9617L211.182 90.176ZM212.462 76.864L204.541 72.5896L204.529 72.6124L204.517 72.6353L212.462 76.864ZM219.31 70.848H228.31V57.2482L215.792 62.564L219.31 70.848ZM242.84 99.648L235.63 105.034L235.651 105.062L235.672 105.089L242.84 99.648ZM267.928 99.648L260.801 94.1523L260.78 94.1794L260.76 94.2066L267.928 99.648ZM272.025 79.36H281.025V70.36H272.025V79.36ZM259.096 79.36V70.36H250.096V79.36H259.096ZM258.329 91.456L266.722 94.705L266.722 94.7049L258.329 91.456ZM252.505 91.456L243.993 94.3817L244.008 94.4238L244.023 94.4657L252.505 91.456ZM252.505 46.528L260.986 49.5377L261.001 49.4958L261.016 49.4537L252.505 46.528ZM258.329 46.464L266.722 43.2151L266.722 43.215L258.329 46.464ZM259.096 58.56H250.096V67.56H259.096V58.56ZM272.025 58.56V67.56H281.025V58.56H272.025ZM267.928 38.272L260.76 43.7134L260.78 43.7406L260.801 43.7677L267.928 38.272ZM242.84 38.272L235.672 32.8306L235.667 32.8373L235.662 32.844L242.84 38.272ZM277.763 104H268.763V113H277.763V104ZM277.763 9.92V0.919998H268.763V9.92H277.763ZM290.69 104V113H299.69V104H290.69ZM290.69 79.808L282.334 76.4655L281.69 78.0748V79.808H290.69ZM292.738 74.688V65.688H286.645L284.382 71.3455L292.738 74.688ZM292.867 74.688L301.797 73.5718L300.812 65.688H292.867V74.688ZM292.995 75.712L284.064 76.8282L284.119 77.2669L284.216 77.698L292.995 75.712ZM299.395 104L290.616 105.986L292.203 113H299.395V104ZM312.451 104V113H323.97L321.183 101.823L312.451 104ZM300.674 56.768L292.431 53.1558L291.199 55.9671L291.942 58.9452L300.674 56.768ZM310.659 33.984L318.902 37.5962L324.429 24.984H310.659V33.984ZM298.371 33.984V24.984H291.941L289.856 31.0666L298.371 33.984ZM292.099 52.288L283.584 49.3706L283.572 49.4062L283.56 49.4419L292.099 52.288ZM291.331 54.592V63.592H297.817L299.869 57.4381L291.331 54.592ZM290.69 54.592H281.69V63.592H290.69V54.592ZM290.69 9.92H299.69V0.919998H290.69V9.92ZM319.789 99.712L312.834 105.425L312.871 105.47L312.909 105.514L319.789 99.712ZM344.365 100.096L337.624 94.1328L337.619 94.1385L344.365 100.096ZM348.781 78.912H357.781V69.912H348.781V78.912ZM336.749 78.912V69.912H327.749V78.912H336.749ZM335.66 91.584L327.712 87.3616L327.66 87.4597L327.611 87.5592L335.66 91.584ZM328.556 91.456L320.553 95.572L320.624 95.7105L320.7 95.8464L328.556 91.456ZM327.405 71.36V62.36H318.405V71.36H327.405ZM348.781 71.36V80.36H357.781V71.36H348.781ZM346.797 41.792L338.697 45.7153L338.709 45.7405L338.721 45.7656L346.797 41.792ZM341.036 35.328L336.196 42.9156L336.225 42.9342L336.255 42.9527L341.036 35.328ZM319.789 38.08L312.973 32.2018L312.973 32.2019L319.789 38.08ZM327.405 61.248H318.405V70.248H327.405V61.248ZM336.749 61.248V70.248H345.749V61.248H336.749ZM328.556 46.464L336.511 50.6749L336.536 50.6277L336.56 50.5802L328.556 46.464ZM335.724 46.4L327.49 50.0327L327.556 50.1808L327.626 50.3265L335.724 46.4ZM354.263 104H345.263V113H354.263V104ZM354.263 33.984V24.984H345.263V33.984H354.263ZM367.19 104V113H376.19V104H367.19ZM378.327 46.912L377.054 55.8215L377.389 55.8695L377.728 55.8921L378.327 46.912ZM380.118 47.296L376.888 55.6961L389.118 60.4003V47.296H380.118ZM380.118 32.96H389.118V23.96H380.118V32.96ZM374.358 34.112L371.016 25.7557L370.983 25.7688L370.951 25.7821L374.358 34.112ZM369.559 37.248L363.195 30.884L363.195 30.884L369.559 37.248ZM367.19 41.792H358.19L376.091 43.1271L367.19 41.792ZM367.19 33.984H376.19V24.984H367.19V33.984ZM379.633 99.4417L385.464 106.297L391.164 101.449L387.438 94.9601L379.633 99.4417ZM376.263 79.8575L367.399 78.2972L367.399 78.2972L376.263 79.8575ZM352.407 122.599L346.576 115.743L339.72 121.574L345.551 128.43L352.407 122.599ZM357.497 128.584L350.641 134.415L356.472 141.27L363.328 135.439L357.497 128.584ZM384.469 105.643L390.702 99.1505L384.835 93.5172L378.638 98.7872L384.469 105.643ZM397.749 112.499L396.103 121.347L397.749 112.499ZM429 89.6718L437.864 91.2321L437.864 91.2321L429 89.6718ZM407.513 57.0302L409.16 48.1822L409.16 48.1822L407.513 57.0302ZM398.754 106.789L400.401 97.9409L400.401 97.9409L398.754 106.789ZM381.692 80.8678L390.555 82.428L390.555 82.428L381.692 80.8678ZM423.571 88.6615L432.435 90.2218L432.435 90.2218L423.571 88.6615ZM406.508 62.7403L404.862 71.5883L404.862 71.5883L406.508 62.7403ZM19.7016 105.344L33.9096 11.2639L16.1114 8.57605L1.90341 102.656L19.7016 105.344ZM24.2425 95H10.8025V113H24.2425V95ZM17.8815 83.6105L15.3214 102.811L33.1636 105.189L35.7236 85.9895L17.8815 83.6105ZM40.1145 75.8H26.8025V93.8H40.1145V75.8ZM51.5956 102.811L49.0356 83.6105L31.1935 85.9895L33.7535 105.189L51.5956 102.811ZM56.1145 95H42.6745V113H56.1145V95ZM33.0074 11.2639L47.2154 105.344L65.0136 102.656L50.8056 8.57605L33.0074 11.2639ZM25.0105 18.92H41.9065V0.919998H25.0105V18.92ZM28.7225 79.208H38.1945V61.208H28.7225V79.208ZM23.7606 37.4712L19.7926 69.0872L37.6524 71.3288L41.6204 39.7128L23.7606 37.4712ZM24.101 32.9097L23.717 37.9017L41.664 39.2823L42.048 34.2903L24.101 32.9097ZM33.8425 24.6H33.0745V42.6H33.8425V24.6ZM43.2 37.9017L42.816 32.9097L24.869 34.2903L25.253 39.2823L43.2 37.9017ZM47.1244 69.0872L43.1564 37.4712L25.2966 39.7128L29.2646 71.3288L47.1244 69.0872ZM70.5125 104V33.984H52.5125V104H70.5125ZM74.4405 95H61.5125V113H74.4405V95ZM65.4405 55.36V104H83.4405V55.36H65.4405ZM70.9798 42.3983C67.0804 45.9078 65.4405 50.5912 65.4405 55.36H83.4405C83.4405 55.0066 83.4959 55.0062 83.4131 55.2091C83.3732 55.307 83.3134 55.4206 83.2332 55.5342C83.1533 55.6473 83.0758 55.7285 83.0212 55.7777L70.9798 42.3983ZM83.7845 37.784C79.2718 37.784 74.6927 39.0567 70.9798 42.3984L83.0212 55.7776C82.9868 55.8086 82.945 55.8391 82.9037 55.8631C82.8632 55.8866 82.8471 55.8899 82.8707 55.8819C82.9194 55.8654 83.189 55.784 83.7845 55.784V37.784ZM86.8493 38.0025C85.8347 37.8575 84.812 37.784 83.7845 37.784V55.784C83.9517 55.784 84.1237 55.7958 84.3037 55.8215L86.8493 38.0025ZM90.5993 38.8959C89.1371 38.3335 87.6454 38.0299 86.1752 37.9319L84.9778 55.8921C84.7876 55.8794 84.4905 55.8318 84.1377 55.6961L90.5993 38.8959ZM78.3685 32.96V47.296H96.3685V32.96H78.3685ZM84.951 42.4683C85.8905 42.0925 86.6791 41.96 87.3685 41.96V23.96C84.2179 23.96 81.1665 24.5955 78.266 25.7557L84.951 42.4683ZM83.1725 43.612C83.5809 43.2035 84.1509 42.7959 85.0162 42.4419L78.2008 25.7821C75.3114 26.9641 72.6814 28.6472 70.4445 30.884L83.1725 43.612ZM83.3409 43.1271C83.3329 43.1805 83.3181 43.2489 83.2931 43.3259C83.268 43.4031 83.2376 43.4742 83.2058 43.5352C83.1385 43.6643 83.0981 43.6863 83.1725 43.612L70.4445 30.884C67.881 33.4476 66.1061 36.6834 65.5401 40.4569L83.3409 43.1271ZM65.4405 33.984V41.792H83.4405V33.984H65.4405ZM61.5125 42.984H74.4405V24.984H61.5125V42.984ZM107.759 95.96C104.045 95.96 102.913 94.903 102.384 94.2066L88.0467 105.089C92.8941 111.476 100.125 113.96 107.759 113.96V95.96ZM113.135 94.2066C112.606 94.903 111.474 95.96 107.759 95.96V113.96C115.394 113.96 122.625 111.476 127.472 105.089L113.135 94.2066ZM115.4 84.864C115.4 89.9899 114.281 92.7194 113.176 94.1523L127.431 105.144C131.787 99.494 133.4 92.3675 133.4 84.864H115.4ZM115.4 79.36V84.864H133.4V79.36H115.4ZM111.471 88.36H124.4V70.36H111.471V88.36ZM120.471 86.528V79.36H102.471V86.528H120.471ZM119.097 94.7049C120.132 92.0313 120.471 89.2053 120.471 86.528H102.471C102.471 87.776 102.299 88.2353 102.31 88.2071L119.097 94.7049ZM107.759 102.44C109.868 102.44 112.33 101.946 114.613 100.407C116.912 98.8584 118.311 96.7344 119.097 94.705L102.31 88.207C102.584 87.5003 103.237 86.3682 104.554 85.4806C105.855 84.6035 107.101 84.44 107.759 84.44V102.44ZM96.3976 94.4657C97.1339 96.5405 98.5081 98.7452 100.846 100.356C103.159 101.949 105.659 102.44 107.759 102.44V84.44C108.409 84.44 109.704 84.6003 111.057 85.5324C112.435 86.4815 113.094 87.6941 113.361 88.4463L96.3976 94.4657ZM95.1755 86.528C95.1755 89.1355 95.4884 91.8221 96.3683 94.3817L113.391 88.5303C113.332 88.3593 113.175 87.7605 113.175 86.528H95.1755ZM95.1755 51.392V86.528H113.175V51.392H95.1755ZM96.3976 43.5183C95.485 46.0904 95.1755 48.7975 95.1755 51.392H113.175C113.175 50.1464 113.335 49.6109 113.361 49.5377L96.3976 43.5183ZM107.759 35.48C105.603 35.48 103.061 36.0036 100.736 37.6574C98.4065 39.3138 97.074 41.5494 96.3683 43.6023L113.391 49.4537C113.154 50.1412 112.537 51.3529 111.167 52.3266C109.802 53.2977 108.465 53.48 107.759 53.48V35.48ZM119.097 43.215C118.311 41.1856 116.912 39.0615 114.613 37.5126C112.33 35.9741 109.868 35.48 107.759 35.48V53.48C107.101 53.48 105.855 53.3165 104.554 52.4394C103.237 51.5518 102.584 50.4197 102.31 49.713L119.097 43.215ZM120.471 51.392C120.471 48.7147 120.132 45.8886 119.097 43.215L102.31 49.713C102.299 49.6847 102.471 50.144 102.471 51.392H120.471ZM120.471 58.56V51.392H102.471V58.56H120.471ZM124.4 49.56H111.471V67.56H124.4V49.56ZM115.4 53.056V58.56H133.4V53.056H115.4ZM113.176 43.7677C114.281 45.2006 115.4 47.9301 115.4 53.056H133.4C133.4 45.5525 131.787 38.426 127.431 32.7763L113.176 43.7677ZM107.759 41.96C111.474 41.96 112.606 43.017 113.135 43.7134L127.472 32.8306C122.625 26.4444 115.394 23.96 107.759 23.96V41.96ZM102.384 43.7134C102.913 43.017 104.045 41.96 107.759 41.96V23.96C100.125 23.96 92.8941 26.4444 88.0467 32.8306L102.384 43.7134ZM100.247 53.056C100.247 47.8091 101.357 45.0723 102.394 43.7L88.0366 32.844C83.7835 38.469 82.2475 45.5883 82.2475 53.056H100.247ZM100.247 84.864V53.056H82.2475V84.864H100.247ZM102.426 94.2619C101.346 92.8166 100.247 90.0427 100.247 84.864H82.2475C82.2475 92.3146 83.794 99.3967 88.0051 105.034L102.426 94.2619ZM150.273 104V24.128H132.273V104H150.273ZM155.098 95H141.273V113H155.098V95ZM146.098 24.128V104H164.098V24.128H146.098ZM168.154 15.128H155.098V33.128H168.154V15.128ZM159.154 9.92V24.128H177.154V9.92H159.154ZM128.217 18.92H168.154V0.919998H128.217V18.92ZM137.217 24.128V9.92H119.217V24.128H137.217ZM141.273 15.128H128.217V33.128H141.273V15.128ZM178.262 104V33.984H160.262V104H178.262ZM182.191 95H169.262V113H182.191V95ZM173.191 55.36V104H191.191V55.36H173.191ZM178.73 42.3984C174.83 45.9078 173.191 50.5912 173.191 55.36H191.191C191.191 55.0066 191.246 55.0062 191.163 55.2091C191.123 55.3069 191.063 55.4205 190.983 55.5341C190.903 55.6473 190.826 55.7285 190.771 55.7776L178.73 42.3984ZM191.535 37.784C187.022 37.784 182.443 39.0567 178.73 42.3984L190.771 55.7776C190.737 55.8086 190.695 55.8391 190.654 55.8631C190.613 55.8866 190.597 55.8899 190.621 55.8819C190.669 55.8654 190.939 55.784 191.535 55.784V37.784ZM194.599 38.0025C193.585 37.8575 192.562 37.784 191.535 37.784V55.784C191.702 55.784 191.874 55.7958 192.054 55.8215L194.599 38.0025ZM198.349 38.8959C196.887 38.3335 195.395 38.0299 193.925 37.9319L192.728 55.8921C192.538 55.8794 192.241 55.8318 191.888 55.6961L198.349 38.8959ZM186.118 32.96V47.296H204.118V32.96H186.118ZM192.701 42.4683C193.64 42.0925 194.429 41.96 195.118 41.96V23.96C191.968 23.96 188.917 24.5955 186.016 25.7557L192.701 42.4683ZM190.922 43.612C191.331 43.2035 191.901 42.7959 192.766 42.4419L185.951 25.7821C183.061 26.9641 180.431 28.6472 178.195 30.884L190.922 43.612ZM191.091 43.127C191.083 43.1805 191.068 43.2489 191.043 43.3259C191.018 43.4031 190.988 43.4742 190.956 43.5352C190.888 43.6643 190.848 43.6863 190.922 43.6119L178.195 30.884C175.631 33.4476 173.856 36.6834 173.29 40.4569L191.091 43.127ZM173.191 33.984V41.792H191.191V33.984H173.191ZM169.262 42.984H182.191V24.984H169.262V42.984ZM208.686 96.024C208.709 96.024 208.783 96.0282 208.884 96.0556C208.985 96.083 209.049 96.1164 209.064 96.1257C209.089 96.1402 208.781 95.9675 208.251 95.2294L193.632 105.731C197.028 110.459 202.079 114.024 208.686 114.024V96.024ZM208.857 96.0134C208.832 96.0328 208.825 96.0351 208.836 96.0294C208.847 96.0236 208.862 96.017 208.877 96.0122C208.891 96.0075 208.889 96.0095 208.865 96.0132C208.841 96.017 208.783 96.024 208.686 96.024V114.024C212.695 114.024 216.512 112.815 219.778 110.323L208.857 96.0134ZM210.506 94.0704C210.014 94.9757 209.484 95.5467 208.947 95.9458L219.688 110.39C222.479 108.315 224.68 105.686 226.321 102.666L210.506 94.0704ZM219.31 89.368H218.413V107.368H219.31V89.368ZM228.419 100.413C228.378 99.7771 228.349 99.2786 228.331 98.9055C228.311 98.4961 228.31 98.3516 228.31 98.368H210.31C210.31 99.1355 210.374 100.305 210.456 101.571L228.419 100.413ZM227.446 98.3246C227.963 98.9597 228.205 99.5286 228.309 99.8356C228.411 100.135 228.409 100.261 228.396 100.125L210.479 101.859C210.696 104.102 211.371 107.084 213.477 109.675L227.446 98.3246ZM233.133 95H220.462V113H233.133V95ZM223.538 100.032C223.726 101.914 223.965 103.732 224.256 105.48L242.011 102.52C241.79 101.196 241.602 99.771 241.449 98.2405L223.538 100.032ZM223.238 91.84C223.238 95.061 223.323 97.8306 223.536 100.01L241.451 98.2621C241.322 96.9427 241.238 94.8484 241.238 91.84H223.238ZM223.238 50.112V91.84H241.238V50.112H223.238ZM222.258 45.4112C222.825 46.5092 223.238 47.9979 223.238 50.112H241.238C241.238 45.5701 240.327 41.1708 238.249 37.1488L222.258 45.4112ZM220.081 42.8553C220.914 43.3701 221.604 44.0852 222.177 45.2519L238.33 37.3081C236.343 33.2695 233.407 29.9312 229.546 27.5447L220.081 42.8553ZM216.493 41.96C218.245 41.96 219.286 42.3505 219.982 42.793L229.645 27.607C225.647 25.0629 221.142 23.96 216.493 23.96V41.96ZM212.053 43.0471C213.206 42.3775 214.609 41.96 216.493 41.96V23.96C211.722 23.96 207.152 25.0785 203.014 27.4809L212.053 43.0471ZM209.227 46.0377C210.024 44.576 210.952 43.679 212.013 43.0703L203.054 27.4577C198.91 29.8357 195.699 33.248 193.424 37.4183L209.227 46.0377ZM208.085 51.648C208.085 48.9742 208.601 47.1991 209.25 45.9949L193.401 37.4611C191.063 41.8036 190.085 46.6418 190.085 51.648H208.085ZM208.085 54.592V51.648H190.085V54.592H208.085ZM212.014 45.592H199.085V63.592H212.014V45.592ZM203.014 51.264V54.592H221.014V51.264H203.014ZM204.388 43.0231C203.346 45.7152 203.014 48.5718 203.014 51.264H221.014C221.014 50.6357 221.054 50.1838 221.101 49.8805C221.148 49.5759 221.192 49.4752 221.175 49.5209L204.388 43.0231ZM215.725 35.224C213.561 35.224 211.058 35.7505 208.762 37.3478C206.469 38.9427 205.109 41.0999 204.355 43.1118L221.208 49.4322C220.966 50.0788 220.352 51.212 219.041 52.1242C217.726 53.0389 216.439 53.224 215.725 53.224V35.224ZM227.29 43.5579C226.578 41.1852 225.082 38.8092 222.562 37.1655C220.182 35.6134 217.67 35.224 215.725 35.224V53.224C215.36 53.224 214.128 53.1546 212.729 52.2425C211.19 51.2388 210.377 49.8228 210.049 48.7301L227.29 43.5579ZM228.31 50.624C228.31 48.1909 228.019 45.6489 227.178 43.2101L210.161 49.0779C210.174 49.1138 210.31 49.5585 210.31 50.624H228.31ZM228.31 58.304V50.624H210.31V58.304H228.31ZM221.978 67.8889C223.351 67.0443 226.158 65.1704 227.582 61.8494L211.037 54.7586C211.565 53.5284 212.253 52.8513 212.45 52.6662C212.684 52.4469 212.768 52.4216 212.545 52.5591L221.978 67.8889ZM217.357 70.4923C219.092 69.5795 220.644 68.7099 221.978 67.8889L212.545 52.5591C211.66 53.1034 210.482 53.7698 208.974 54.5637L217.357 70.4923ZM208.858 77.2709C210.428 75.0578 213.066 72.7268 217.322 70.5108L209.009 54.5452C202.94 57.7052 197.812 61.7316 194.177 66.8571L208.858 77.2709ZM206.678 86.592C206.678 81.7945 207.7 78.9313 208.899 77.2136L194.136 66.9144C190.215 72.5354 188.678 79.3575 188.678 86.592H206.678ZM208.251 95.2294C207.692 94.4515 206.678 92.0798 206.678 86.592H188.678C188.678 93.5629 189.839 100.45 193.632 105.731L208.251 95.2294ZM213.934 101.352C217.731 101.352 221.304 99.9498 224.073 97.18L211.346 84.452C211.626 84.1713 212.051 83.8571 212.606 83.6313C213.156 83.4078 213.633 83.352 213.934 83.352V101.352ZM202.775 93.3902C203.447 95.1465 204.623 97.2229 206.703 98.8677C208.904 100.608 211.471 101.352 213.934 101.352V83.352C215.116 83.352 216.584 83.7335 217.868 84.7482C219.03 85.6677 219.471 86.6562 219.588 86.9618L202.775 93.3902ZM201.35 85.824C201.35 88.4488 201.856 90.9863 202.775 93.3903L219.588 86.9617C219.398 86.4643 219.35 86.1005 219.35 85.824H201.35ZM204.517 72.6353C202.342 76.7215 201.35 81.1872 201.35 85.824H219.35C219.35 83.8048 219.765 82.2972 220.406 81.0927L204.517 72.6353ZM215.792 62.564C211.012 64.5936 207.067 67.9087 204.541 72.5896L220.382 81.1384C220.757 80.4433 221.377 79.7478 222.827 79.132L215.792 62.564ZM228.31 87.488V70.848H210.31V87.488H228.31ZM223.942 97.3085C226.329 95.0176 228.31 91.692 228.31 87.488H210.31C210.31 86.6937 210.498 85.9404 210.798 85.3163C211.081 84.7281 211.386 84.4106 211.477 84.3235L223.942 97.3085ZM255.385 95.96C251.67 95.96 250.538 94.903 250.009 94.2066L235.672 105.089C240.519 111.476 247.75 113.96 255.385 113.96V95.96ZM260.76 94.2066C260.231 94.903 259.099 95.96 255.385 95.96V113.96C263.019 113.96 270.25 111.476 275.097 105.089L260.76 94.2066ZM263.025 84.864C263.025 89.9899 261.906 92.7194 260.801 94.1523L275.056 105.144C279.412 99.494 281.025 92.3674 281.025 84.864H263.025ZM263.025 79.36V84.864H281.025V79.36H263.025ZM259.096 88.36H272.025V70.36H259.096V88.36ZM268.096 86.528V79.36H250.096V86.528H268.096ZM266.722 94.7049C267.757 92.0313 268.096 89.2053 268.096 86.528H250.096C250.096 87.776 249.924 88.2353 249.935 88.2071L266.722 94.7049ZM255.385 102.44C257.493 102.44 259.955 101.946 262.238 100.407C264.537 98.8584 265.936 96.7344 266.722 94.705L249.935 88.207C250.209 87.5003 250.862 86.3682 252.179 85.4806C253.48 84.6035 254.726 84.44 255.385 84.44V102.44ZM244.023 94.4657C244.759 96.5405 246.133 98.7452 248.471 100.356C250.784 101.949 253.284 102.44 255.385 102.44V84.44C256.034 84.44 257.329 84.6003 258.682 85.5324C260.06 86.4815 260.719 87.6941 260.986 88.4463L244.023 94.4657ZM242.801 86.528C242.801 89.1355 243.113 91.822 243.993 94.3817L261.016 88.5303C260.957 88.3593 260.801 87.7605 260.801 86.528H242.801ZM242.801 51.392V86.528H260.801V51.392H242.801ZM244.023 43.5183C243.11 46.0905 242.801 48.7976 242.801 51.392H260.801C260.801 50.1464 260.96 49.6109 260.986 49.5377L244.023 43.5183ZM255.385 35.48C253.228 35.48 250.686 36.0036 248.361 37.6574C246.032 39.3138 244.699 41.5494 243.993 43.6023L261.016 49.4537C260.779 50.1412 260.161 51.3529 258.792 52.3266C257.427 53.2977 256.09 53.48 255.385 53.48V35.48ZM266.722 43.215C265.936 41.1856 264.537 39.0615 262.238 37.5126C259.955 35.9741 257.493 35.48 255.385 35.48V53.48C254.726 53.48 253.48 53.3165 252.179 52.4394C250.862 51.5518 250.209 50.4197 249.935 49.713L266.722 43.215ZM268.096 51.392C268.096 48.7147 267.757 45.8887 266.722 43.2151L249.935 49.7129C249.924 49.6847 250.096 50.144 250.096 51.392H268.096ZM268.096 58.56V51.392H250.096V58.56H268.096ZM272.025 49.56H259.096V67.56H272.025V49.56ZM263.025 53.056V58.56H281.025V53.056H263.025ZM260.801 43.7677C261.906 45.2006 263.025 47.9301 263.025 53.056H281.025C281.025 45.5526 279.412 38.426 275.056 32.7763L260.801 43.7677ZM255.385 41.96C259.099 41.96 260.231 43.017 260.76 43.7134L275.097 32.8306C270.25 26.4443 263.019 23.96 255.385 23.96V41.96ZM250.009 43.7134C250.538 43.017 251.67 41.96 255.385 41.96V23.96C247.75 23.96 240.519 26.4444 235.672 32.8306L250.009 43.7134ZM247.872 53.056C247.872 47.809 248.982 45.0723 250.019 43.7L235.662 32.844C231.409 38.469 229.872 45.5883 229.872 53.056H247.872ZM247.872 84.864V53.056H229.872V84.864H247.872ZM250.051 94.2619C248.971 92.8166 247.872 90.0427 247.872 84.864H229.872C229.872 92.3146 231.419 99.3967 235.63 105.034L250.051 94.2619ZM286.763 104V9.92H268.763V104H286.763ZM290.69 95H277.763V113H290.69V95ZM281.69 79.808V104H299.69V79.808H281.69ZM284.382 71.3455L282.334 76.4655L299.047 83.1505L301.095 78.0305L284.382 71.3455ZM292.867 65.688H292.738V83.688H292.867V65.688ZM301.925 74.5958L301.797 73.5718L283.936 75.8042L284.064 76.8282L301.925 74.5958ZM308.173 102.014L301.773 73.726L284.216 77.698L290.616 105.986L308.173 102.014ZM312.451 95H299.395V113H312.451V95ZM291.942 58.9452L303.718 106.177L321.183 101.823L309.407 54.5907L291.942 58.9452ZM302.415 30.3718L292.431 53.1558L308.918 60.3802L318.902 37.5962L302.415 30.3718ZM298.371 42.984H310.659V24.984H298.371V42.984ZM300.613 55.2054L306.885 36.9014L289.856 31.0666L283.584 49.3706L300.613 55.2054ZM299.869 57.4381L300.637 55.1341L283.56 49.4419L282.792 51.7459L299.869 57.4381ZM290.69 63.592H291.331V45.592H290.69V63.592ZM281.69 52.288V54.592H299.69V52.288H281.69ZM281.69 9.92V52.288H299.69V9.92H281.69ZM277.763 18.92H290.69V0.919998H277.763V18.92ZM332.013 96.024C329.161 96.024 327.736 95.1759 326.668 93.9097L312.909 105.514C317.814 111.331 324.539 114.024 332.013 114.024V96.024ZM337.619 94.1385C336.791 95.0758 335.373 96.024 332.013 96.024V114.024C339.318 114.024 346.136 111.687 351.11 106.053L337.619 94.1385ZM339.781 86.976C339.781 90.702 338.809 92.7923 337.624 94.1328L351.105 106.059C355.808 100.744 357.781 94.0873 357.781 86.976H339.781ZM339.781 78.912V86.976H357.781V78.912H339.781ZM336.749 87.912H348.781V69.912H336.749V87.912ZM345.749 86.592V78.912H327.749V86.592H345.749ZM343.609 95.8064C345.186 92.8371 345.749 89.6396 345.749 86.592H327.749C327.749 87.4697 327.586 87.6002 327.712 87.3616L343.609 95.8064ZM332.141 102.632C334.205 102.632 336.555 102.202 338.795 100.899C341.08 99.5693 342.686 97.6577 343.71 95.6088L327.611 87.5592C327.952 86.8756 328.63 85.988 329.742 85.3409C330.809 84.7203 331.74 84.632 332.141 84.632V102.632ZM320.7 95.8464C322.998 99.9581 327.095 102.632 332.141 102.632V84.632C332.78 84.632 333.745 84.796 334.731 85.3949C335.694 85.9797 336.203 86.6905 336.413 87.0656L320.7 95.8464ZM318.405 86.592C318.405 89.7114 319.102 92.7517 320.553 95.572L336.56 87.34C336.475 87.1736 336.405 86.9713 336.405 86.592H318.405ZM318.405 71.36V86.592H336.405V71.36H318.405ZM348.781 62.36H327.405V80.36H348.781V62.36ZM339.781 51.008V71.36H357.781V51.008H339.781ZM338.721 45.7656C339.348 47.0404 339.781 48.7181 339.781 51.008H357.781C357.781 46.3859 356.89 41.9196 354.872 37.8184L338.721 45.7656ZM336.255 42.9527C337.309 43.6138 338.094 44.4716 338.697 45.7153L354.896 37.8686C352.853 33.651 349.799 30.1995 345.818 27.7033L336.255 42.9527ZM332.141 41.96C334.191 41.96 335.408 42.4125 336.196 42.9156L345.877 27.7404C341.716 25.0861 337.002 23.96 332.141 23.96V41.96ZM326.604 43.9581C327.535 42.8781 328.965 41.96 332.141 41.96V23.96C324.734 23.96 317.93 26.4552 312.973 32.2018L326.604 43.9581ZM324.372 51.392C324.372 47.6119 325.352 45.4093 326.604 43.9581L312.973 32.2019C308.337 37.5773 306.372 44.2494 306.372 51.392H324.372ZM324.372 86.592V51.392H306.372V86.592H324.372ZM326.743 93.9993C325.272 92.209 324.372 89.9218 324.372 86.592H306.372C306.372 93.5875 308.417 100.047 312.834 105.425L326.743 93.9993ZM327.405 70.248H336.749V52.248H327.405V70.248ZM318.405 51.392V61.248H336.405V51.392H318.405ZM320.602 42.2531C319.07 45.1478 318.405 48.2648 318.405 51.392H336.405C336.405 50.8498 336.507 50.6816 336.511 50.6749L320.602 42.2531ZM332.141 35.224C329.903 35.224 327.492 35.7563 325.259 37.152C323.043 38.5366 321.535 40.4378 320.553 42.3478L336.56 50.5802C336.346 50.9969 335.819 51.778 334.798 52.416C333.76 53.065 332.757 53.224 332.141 53.224V35.224ZM343.959 42.7673C342.999 40.5908 341.399 38.5195 339.019 37.0749C336.7 35.6665 334.251 35.224 332.141 35.224V53.224C331.779 53.224 330.803 53.1441 329.678 52.4611C328.493 51.7418 327.81 50.7585 327.49 50.0327L343.959 42.7673ZM345.749 51.392C345.749 48.4147 345.218 45.3514 343.823 42.4735L327.626 50.3265C327.596 50.2646 327.749 50.5293 327.749 51.392H345.749ZM345.749 61.248V51.392H327.749V61.248H345.749ZM363.263 104V33.984H345.263V104H363.263ZM367.19 95H354.263V113H367.19V95ZM358.19 55.36V104H376.19V55.36H358.19ZM363.73 42.3984C359.83 45.9078 358.19 50.5912 358.19 55.36H376.19C376.19 55.0066 376.246 55.0062 376.163 55.2091C376.123 55.3069 376.063 55.4205 375.983 55.5341C375.903 55.6473 375.826 55.7285 375.771 55.7776L363.73 42.3984ZM376.535 37.784C372.022 37.784 367.443 39.0567 363.73 42.3984L375.771 55.7776C375.737 55.8086 375.695 55.8391 375.654 55.8631C375.613 55.8866 375.597 55.89 375.621 55.8819C375.669 55.8654 375.939 55.784 376.535 55.784V37.784ZM379.599 38.0025C378.585 37.8575 377.562 37.784 376.535 37.784V55.784C376.702 55.784 376.874 55.7958 377.054 55.8215L379.599 38.0025ZM383.349 38.8959C381.887 38.3335 380.395 38.0299 378.925 37.9319L377.728 55.8921C377.538 55.8794 377.241 55.8318 376.888 55.6961L383.349 38.8959ZM371.118 32.96V47.296H389.118V32.96H371.118ZM377.701 42.4683C378.64 42.0925 379.429 41.96 380.118 41.96V23.96C376.968 23.96 373.917 24.5955 371.016 25.7557L377.701 42.4683ZM375.922 43.612C376.331 43.2035 376.901 42.7959 377.766 42.4419L370.951 25.7821C368.061 26.9641 365.431 28.6472 363.195 30.884L375.922 43.612ZM376.091 43.1271C376.083 43.1806 376.068 43.2489 376.043 43.326C376.018 43.4031 375.988 43.4742 375.956 43.5353C375.888 43.6643 375.848 43.6863 375.922 43.6119L363.195 30.884C360.631 33.4476 358.856 36.6834 358.29 40.4569L376.091 43.1271ZM358.19 33.984V41.792H376.19V33.984H358.19ZM354.263 42.984H367.19V24.984H354.263V42.984ZM387.438 94.9601C385.219 91.0956 384.26 86.3388 385.127 81.4177L367.399 78.2972C365.787 87.454 367.553 96.478 371.828 103.923L387.438 94.9601ZM358.238 129.454L385.464 106.297L373.802 92.5861L346.576 115.743L358.238 129.454ZM364.353 122.753L359.262 116.768L345.551 128.43L350.641 134.415L364.353 122.753ZM378.638 98.7872L351.666 121.728L363.328 135.439L390.3 112.499L378.638 98.7872ZM399.396 103.651C396.051 103.028 393.088 101.441 390.702 99.1505L378.236 112.135C383.029 116.736 389.138 120.051 396.103 121.347L399.396 103.651ZM420.136 88.1115C418.234 98.9179 408.631 105.37 399.396 103.651L396.103 121.347C415.993 125.049 434.373 111.06 437.864 91.2321L420.136 88.1115ZM405.867 65.8783C415.181 67.6117 422.048 77.2497 420.136 88.1116L437.864 91.2321C441.344 71.4593 428.972 51.8691 409.16 48.1822L405.867 65.8783ZM385.127 81.4177C387.029 70.6114 396.632 64.1597 405.867 65.8783L409.16 48.1822C389.269 44.4805 370.89 58.469 367.399 78.2972L385.127 81.4177ZM400.401 97.9409C394.085 96.7655 389.199 90.1363 390.555 82.428L372.828 79.3075C369.903 95.9267 380.295 112.508 397.108 115.637L400.401 97.9409ZM414.707 87.1012C413.36 94.754 406.638 99.1016 400.401 97.9409L397.108 115.637C414 118.781 429.5 106.896 432.435 90.2218L414.707 87.1012ZM404.862 71.5883C411.178 72.7638 416.064 79.393 414.707 87.1013L432.435 90.2218C435.36 73.6026 424.968 57.0211 408.155 53.8922L404.862 71.5883ZM390.555 82.428C391.903 74.7752 398.625 70.4277 404.862 71.5883L408.155 53.8922C391.263 50.7485 375.763 62.6328 372.828 79.3075L390.555 82.428Z" fill="black" mask="url(#path-1-outside-1_1_54)"/>
</svg>
